2014014_C4_05_grf
version=1
nRows=12
nColumns=19
inDegrees=no
endheader
time	ground_force_1_vx	ground_force_1_vy	ground_force_1_vz	ground_force_1_px	ground_force_1_py	ground_force_1_pz	ground_force_1_mx	ground_force_1_my	ground_force_1_mz	ground_force_2_vx	ground_force_2_vy	ground_force_2_vz	ground_force_2_px	ground_force_2_py	ground_force_2_pz	ground_force_2_mx	ground_force_2_my	ground_force_2_mz
      0.45000000	      0.00000000	      0.00000000	      0.00000000	      0.00000000	      0.00000000	      0.00000000	      0.00000000	      0.00000000	      0.00000000	    -23.65917526	    781.74650669	     33.68898109	     -0.83625576	     -0.00200000	      0.15874322	     -0.00000000	     -3.70784777	     -0.00000000
      0.45100000	      0.00000000	      0.00000000	      0.00000000	      0.00000000	      0.00000000	      0.00000000	      0.00000000	      0.00000000	      0.00000000	    -23.45984522	    783.79649669	     33.85594524	     -0.83570664	     -0.00200000	      0.15867527	     -0.00000000	     -3.72172381	      0.00000000
      0.45200000	      0.00000000	      0.00000000	      0.00000000	      0.00000000	      0.00000000	      0.00000000	      0.00000000	      0.00000000	      0.00000000	    -23.25914428	    785.86868942	     34.02195722	     -0.83516016	     -0.00200000	      0.15860735	     -0.00000000	     -3.73533572	     -0.00000000
      0.45300000	      0.00000000	      0.00000000	      0.00000000	      0.00000000	      0.00000000	      0.00000000	      0.00000000	      0.00000000	      0.00000000	    -23.05653878	    787.96811402	     34.18668732	     -0.83461713	     -0.00200000	      0.15853945	     -0.00000000	     -3.74863073	     -0.00000000
      0.45400000	      0.00000000	      0.00000000	      0.00000000	      0.00000000	      0.00000000	      0.00000000	      0.00000000	      0.00000000	      0.00000000	    -22.85224199	    790.08907080	     34.35031995	     -0.83407695	     -0.00200000	      0.15847158	      0.00000000	     -3.76167903	     -0.00000000
      0.45500000	      0.00000000	      0.00000000	      0.00000000	      0.00000000	      0.00000000	      0.00000000	      0.00000000	      0.00000000	      0.00000000	    -22.64561132	    792.23651439	     34.51251648	     -0.83354048	     -0.00200000	      0.15840371	      0.00000000	     -3.77442707	     -0.00000000
      0.45600000	      0.00000000	      0.00000000	      0.00000000	      0.00000000	      0.00000000	      0.00000000	      0.00000000	      0.00000000	      0.00000000	    -22.43693359	    794.40489411	     34.67351273	     -0.83300708	     -0.00200000	      0.15833583	     -0.00000000	     -3.78693769	     -0.00000000
      0.45700000	      0.00000000	      0.00000000	      0.00000000	      0.00000000	      0.00000000	      0.00000000	      0.00000000	      0.00000000	      0.00000000	    -22.22547121	    796.59909010	     34.83295776	     -0.83247765	     -0.00200000	      0.15826793	      0.00000000	     -3.79915155	      0.00000000
      0.45800000	      0.00000000	      0.00000000	      0.00000000	      0.00000000	      0.00000000	      0.00000000	      0.00000000	      0.00000000	      0.00000000	    -22.01159671	    798.81362617	     34.99112651	     -0.83195148	     -0.00200000	      0.15819997	      0.00000000	     -3.81112545	      0.00000000
      0.45900000	      0.00000000	      0.00000000	      0.00000000	      0.00000000	      0.00000000	      0.00000000	      0.00000000	      0.00000000	      0.00000000	    -21.79448586	    801.05312169	     35.14767922	     -0.83142955	     -0.00200000	      0.15813193	      0.00000000	     -3.82279566	      0.00000000
      0.46000000	      0.00000000	      0.00000000	      0.00000000	      0.00000000	      0.00000000	      0.00000000	      0.00000000	      0.00000000	      0.00000000	    -21.57460339	    803.31228673	     35.30293778	     -0.83091108	     -0.00200000	      0.15806380	     -0.00000000	     -3.83421723	      0.00000000
      0.46100000	      0.00000000	      0.00000000	      0.00000000	      0.00000000	      0.00000000	      0.00000000	      0.00000000	      0.00000000	      0.00000000	    -21.35102917	    805.59551716	     35.45659818	     -0.83039704	     -0.00200000	      0.15799553	     -0.00000000	     -3.84531964	      0.00000000
